<?xml version="1.0" encoding="utf-8"?>
<!-- Generator: Adobe Illustrator 27.5.0, SVG Export Plug-In . SVG Version: 6.00 Build 0)  -->
<svg version="1.1" xmlns="http://www.w3.org/2000/svg" xmlns:xlink="http://www.w3.org/1999/xlink" x="0px" y="0px"
	 viewBox="0 0 750 500" style="enable-background:new 0 0 750 500;" xml:space="preserve">
<g id="BACKGROUND">
	<rect style="fill:#D3D3F3;" width="750" height="500"/>
</g>
<g id="OBJECTS">
	<g>
		<g>
			<g>
				<g>
					<path style="fill:none;stroke:#FFFFFF;stroke-width:0.9941;stroke-miterlimit:10;" d="M82.021,268.17h194.12
						c2.283-1.038,4.134-2.889,4.134-5.173V121.348c0-2.283-1.851-4.134-4.134-4.134H82.021c-2.283,0-4.134,1.851-4.134,4.134
						v141.649C77.887,265.28,79.738,267.132,82.021,268.17z"/>
				</g>
				<g>
					<path style="fill:none;stroke:#FFFFFF;stroke-width:0.9941;stroke-miterlimit:10;" d="M444.347,303.077h128.738
						c2.538,0,4.595-2.057,4.595-4.595V146.448c0-2.538-2.057-4.595-4.595-4.595H444.347c-2.538,0-4.595,2.057-4.595,4.595v152.034
						C439.753,301.02,441.81,303.077,444.347,303.077z"/>
				</g>
			</g>
			<g>
				<g>
					<g>
						<path style="fill:#E26D75;" d="M719.713,368.903c0,15.073-12.219,27.293-27.292,27.293c-15.074,0-27.293-12.219-27.293-27.293
							c0-15.073,12.219-27.293,27.293-27.293C707.493,341.611,719.713,353.83,719.713,368.903z"/>
					</g>
					<path style="fill:#FFFFFF;" d="M701.699,361.882c-2.237-2.19-5.818-2.151-8.005,0.085l-1.442,1.472l-1.484-1.461
						c-2.227-2.196-5.811-2.166-8.006,0.061c-2.193,2.228-2.166,5.812,0.063,8.006l5.507,5.424c0.012,0.011,0.019,0.025,0.031,0.037
						c0.879,0.861,1.965,1.376,3.096,1.55c1.742,0.268,3.583-0.28,4.909-1.634l5.417-5.532
						C703.972,367.654,703.934,364.07,701.699,361.882z"/>
					
						<polyline style="fill:none;stroke:#E26D75;stroke-width:1.8975;stroke-linecap:round;stroke-linejoin:round;stroke-miterlimit:10;" points="
						694.78,356.652 690.7,367.167 694.938,367.167 686.463,381.869 					"/>
				</g>
				<g>
					<g>
						
							<ellipse transform="matrix(0.9239 -0.3827 0.3827 0.9239 -45.6071 33.2751)" style="fill:#7473DD;" cx="60.839" cy="131.279" rx="30.098" ry="30.097"/>
					</g>
					<g>
						<g>
							<g>
								<path style="fill:#FBFBFB;" d="M65.911,120.652c-5.211-0.089-10.486-0.16-15.278,0.172
									c-1.517,0.105-2.828,2.515-0.986,3.276c-0.775,0.398-1.561,0.781-1.9,1.65c-0.32,0.823,0.065,1.94,0.922,2.152
									c-1.807-0.447-2.52,2.421-1.11,3.346c-0.746,0.635-1.367,1.476-1.524,2.443c-0.157,0.967,0.239,2.06,1.1,2.528
									c0.564,0.307,1.236,0.319,1.878,0.324c2.167,0.016,4.334,0.032,6.501,0.048c-0.587,3.391-0.764,7.087,0.96,10.065
									c0.519,0.897,1.914,1.973,3.021,1.282c1.038-0.647,0.75-2.256,0.698-3.271c-0.217-4.218,2.184-8.461,5.91-10.449
									C66.103,134.221,65.857,125.236,65.911,120.652z"/>
							</g>
						</g>
						
							<rect x="67.801" y="120.665" transform="matrix(-1 -1.224647e-16 1.224647e-16 -1 143.4771 254.8855)" style="fill:#FBFBFB;" width="7.876" height="13.556"/>
					</g>
				</g>
			</g>
			<g>
				<path style="fill:none;stroke:#FFFFFF;stroke-width:0.9941;stroke-miterlimit:10;" d="M709.84,284.025
					c0,3.521-2.854,6.376-6.375,6.376c-3.521,0-6.376-2.854-6.376-6.376c0-3.521,2.854-6.376,6.376-6.376
					C706.985,277.65,709.84,280.504,709.84,284.025z"/>
				<path style="fill:none;stroke:#FFFFFF;stroke-width:0.9941;stroke-miterlimit:10;" d="M442.906,75.22
					c0,3.521-2.854,6.376-6.376,6.376c-3.521,0-6.376-2.854-6.376-6.376c0-3.521,2.854-6.376,6.376-6.376
					C440.052,68.844,442.906,71.699,442.906,75.22z"/>
				<path style="fill:none;stroke:#FFFFFF;stroke-width:0.9941;stroke-miterlimit:10;" d="M72.188,45.327
					c0,3.521-2.854,6.376-6.376,6.376c-3.521,0-6.375-2.855-6.375-6.376s2.854-6.375,6.375-6.375
					C69.334,38.951,72.188,41.806,72.188,45.327z"/>
				<path style="fill:none;stroke:#FFFFFF;stroke-width:0.9941;stroke-miterlimit:10;" d="M266.624,50.58H387.44
					c2.346,0,4.247-1.902,4.247-4.248l0,0c0-2.346-1.902-4.248-4.247-4.248H266.624c-2.346,0-4.248,1.902-4.248,4.248l0,0
					C262.376,48.678,264.278,50.58,266.624,50.58z"/>
				<path style="fill:none;stroke:#FFFFFF;stroke-width:0.9941;stroke-miterlimit:10;" d="M107.474,428.567h45.369
					c2.346,0,4.248-1.902,4.248-4.248l0,0c0-2.346-1.902-4.247-4.248-4.247h-45.369c-2.346,0-4.247,1.902-4.247,4.247l0,0
					C103.226,426.666,105.128,428.567,107.474,428.567z"/>
				<path style="fill:none;stroke:#FFFFFF;stroke-width:0.9941;stroke-miterlimit:10;" d="M584.601,430.567h81.452
					c2.346,0,4.248-1.902,4.248-4.248l0,0c0-2.346-1.902-4.247-4.248-4.247h-81.452c-2.346,0-4.248,1.902-4.248,4.247l0,0
					C580.354,428.666,582.255,430.567,584.601,430.567z"/>
				
					<line style="fill:none;stroke:#9998E0;stroke-width:0.9941;stroke-miterlimit:10;" x1="33.724" y1="386.369" x2="33.724" y2="419.131"/>
				
					<line style="fill:none;stroke:#9998E0;stroke-width:0.9941;stroke-miterlimit:10;" x1="703.464" y1="158.858" x2="703.464" y2="233.476"/>
			</g>
		</g>
		<g>
			<g>
				<g>
					<path style="fill:#FFFFFF;" d="M673.897,202.409H486.864c-3.1,0-5.612-2.513-5.612-5.612V53.21c0-3.1,2.513-5.612,5.612-5.612
						h187.033c3.099,0,5.612,2.513,5.612,5.612v143.587C679.509,199.897,676.996,202.409,673.897,202.409z"/>
					<path style="fill:#70B1C1;" d="M675.476,202.409H485.9c-2.567,0-4.648-2.081-4.648-4.648V182.54h198.873v15.221
						C680.125,200.328,678.044,202.409,675.476,202.409z"/>
					<rect x="481.252" y="66.856" style="fill:#7473DD;" width="198.873" height="115.685"/>
					<g>
						
							<line style="fill:none;stroke:#000000;stroke-width:0.6187;stroke-linecap:round;stroke-linejoin:round;stroke-miterlimit:10;" x1="481.252" y1="66.856" x2="679.467" y2="66.856"/>
						<path style="fill:#D3D2F5;" d="M505.733,56.969c0,3.077-2.495,5.572-5.572,5.572c-3.078,0-5.572-2.495-5.572-5.572
							c0-3.078,2.495-5.572,5.572-5.572C503.239,51.397,505.733,53.891,505.733,56.969z"/>
						
							<line style="fill:none;stroke:#000000;stroke-width:0.6187;stroke-linecap:round;stroke-linejoin:round;stroke-miterlimit:10;" x1="512.845" y1="56.969" x2="541.369" y2="56.969"/>
					</g>
					<g>
						<path style="fill:#FFFFFF;" d="M503.485,189.278c-0.977-0.956-2.54-0.939-3.495,0.037l-0.629,0.643l-0.648-0.638
							c-0.972-0.959-2.537-0.946-3.496,0.027c-0.957,0.973-0.946,2.538,0.027,3.495l2.404,2.368
							c0.005,0.005,0.009,0.011,0.014,0.016c0.384,0.376,0.858,0.601,1.352,0.677c0.761,0.117,1.564-0.122,2.143-0.714l2.365-2.415
							C504.477,191.798,504.46,190.233,503.485,189.278z"/>
						<path style="fill:#FFFFFF;" d="M520.876,192.251c0,2.335-1.893,4.227-4.227,4.227s-4.227-1.893-4.227-4.227
							c0-2.335,1.893-4.227,4.227-4.227S520.876,189.917,520.876,192.251z"/>
					</g>
				</g>
				<g>
					<defs>
						<rect id="SVGID_1_" x="450.479" y="41.091" width="229.646" height="141.45"/>
					</defs>
					<clipPath id="SVGID_00000029042231837415574360000012690862947233077650_">
						<use xlink:href="#SVGID_1_"  style="overflow:visible;"/>
					</clipPath>
					<g style="clip-path:url(#SVGID_00000029042231837415574360000012690862947233077650_);">
						<g>
							<g>
								<path style="fill:#B76650;" d="M601.926,79.118c-0.782,3.562-3.601,4.492-7.162,3.709c-3.562-0.782-5.626-5.077-4.844-8.639
									c0.782-3.562,3.978-4.493,7.54-3.711C601.021,71.26,602.708,75.557,601.926,79.118z"/>
							</g>
							<path style="fill:#2D1631;" d="M595.074,64.097c-1.846,11.648,3.804,21.755,15.988,23.686
								c12.185,1.931,17.955-0.017,24.584-14.384c5.719-12.395-4.286-25.195-16.471-27.126S596.92,52.449,595.074,64.097z"/>
							<polygon style="fill:#C87D63;" points="617.993,85.375 615.353,116.237 598.507,112.459 604.814,86.329 							"/>
							<path d="M600.772,103.23c0,0,11.925-1.07,14.466-10.285c0.803-2.912-10.915-4.521-10.915-4.521L600.772,103.23z"/>
							<path style="fill:#C87D63;" d="M621.656,52.433c-3.595-1.622-7.545-2.485-11.484-2.287
								c-5.335,0.269-12.468,2.466-14.792,11.775c-3.874,15.514-3.834,27.438,3.371,32.229c5.532,3.678,10.042,3.312,17.541,0.399
								c2.791-1.084,6.097-5.951,7.267-8.854l4.281-7.947C627.84,77.749,638.832,60.185,621.656,52.433z"/>
							<path style="fill:#2D1631;" d="M623.626,81.532c0,0-1.481-21.904,8.289-21.601c0,0,7.756,3.416,3.129,11.411
								C630.419,79.337,623.626,81.532,623.626,81.532z"/>
							<g>
								<g>
									<g>
										<g>
											
												<polyline style="fill:none;stroke:#753A27;stroke-width:0.7456;stroke-linecap:round;stroke-linejoin:round;stroke-miterlimit:10;" points="
												601.426,74.255 598.886,77.353 600.932,79.118 											"/>
										</g>
									</g>
									
										<path style="fill:none;stroke:#000000;stroke-width:0.9208;stroke-linecap:round;stroke-linejoin:round;stroke-miterlimit:10;" d="
										M607.651,72.989c0,0,3.955-0.846,6.195,1.918"/>
									
										<path style="fill:none;stroke:#000000;stroke-width:0.9208;stroke-linecap:round;stroke-linejoin:round;stroke-miterlimit:10;" d="
										M600.055,71.41c0,0-2.233-1.977-4.536-0.313"/>
								</g>
								<g>
									<defs>
										<path id="XMLID_30_" d="M598.148,81.07l12.07,2.813c0,0-1.257,5.654-7.573,4.046
											C596.329,86.32,598.148,81.07,598.148,81.07z"/>
									</defs>
									<use xlink:href="#XMLID_30_"  style="overflow:visible;"/>
									<clipPath id="XMLID_00000078739996259713737710000017148274947634144663_">
										<use xlink:href="#XMLID_30_"  style="overflow:visible;"/>
									</clipPath>
									<polygon style="clip-path:url(#XMLID_00000078739996259713737710000017148274947634144663_);fill:#FFFFFF;" points="
										596.933,82.762 611.152,86.135 611.755,82.462 595.912,77.3 									"/>
									<path style="clip-path:url(#XMLID_00000078739996259713737710000017148274947634144663_);fill:#D85758;" d="
										M608.622,92.154c-1.326,1.845-3.896,2.266-5.741,0.94c-1.845-1.326-2.266-3.896-0.94-5.741
										c1.326-1.845,3.896-2.266,5.741-0.94C609.526,87.738,609.947,90.309,608.622,92.154z"/>
								</g>
								<path style="fill:#2D1631;" d="M601.666,68.029c0,0,0.814-8.26-6.225-5.135L601.666,68.029z"/>
								<path style="fill:#2D1631;" d="M606.764,68.379c0,0,5.484-6.979,12.116,0.098L606.764,68.379z"/>
							</g>
							<g>
								<path style="fill:#C87D63;" d="M620.854,86.077c0.782,3.562,3.601,4.492,7.163,3.709c3.562-0.782,5.626-5.077,4.844-8.639
									c-0.782-3.562-3.978-4.493-7.54-3.711C621.759,78.219,620.072,82.516,620.854,86.077z"/>
							</g>
							<path style="fill:#2D1631;" d="M601.058,52.285c0,0,2.616,4.11,31.249,10.747c0,0,4.123-6.353-7.39-12.23
								C613.404,44.925,601.058,52.285,601.058,52.285z"/>
						</g>
						<g>
							<g>
								<g>
									<path style="fill:#C87D63;" d="M536.263,165.703L536.263,165.703c3.534,3.523,9.254,3.515,12.777-0.019l36.164-34.967
										c3.523-3.534-3.52-9.96-7.054-13.483l0,0c-3.534-3.523-9.985,0.712-13.508,4.246l-28.398,31.446
										C532.721,156.46,532.729,162.18,536.263,165.703z"/>
									<path style="fill:#FFFFFF;" d="M546.633,130.441l19.298,23.251l14.184-16.786c5.599-4.75,6.288-13.139,1.538-18.738l0,0
										c-4.75-5.599-13.139-6.288-18.738-1.538L546.633,130.441z"/>
								</g>
								<g>
									<g>
										<g>
											<polygon style="fill:#C87D63;" points="547.82,147.203 496.242,156.844 499.164,167.258 541.554,168.285 											"/>
										</g>
									</g>
									<g>
										<path style="fill:#C87D63;" d="M504.197,166.784c3.038-3.643,1.534-9.198-2.927-10.811l-13.332-4.82
											c0,0-2.025-0.821-6.96,1.243c-3.917,1.639-12.9,3.762-16.478,4.577c-0.828,0.189-1.939,0.782-1.611,1.783l0,0
											c0.156,0.733,1.508,1.212,2.693,1.087c2.622-0.277,8.853-0.653,13.521-2.012c0,0-1.07,1.656,0.268,3.068
											c0,0-1.952,2.22,1.409,4.091c0,0-2.797,3.524,2.335,5.276l5.628,0.295c1.114,0.058,2.083-0.754,2.221-1.86l0,0
											C490.964,168.702,500.525,170.827,504.197,166.784L504.197,166.784z"/>
									</g>
								</g>
							</g>
							<g>
								<path style="fill:#C87D63;" d="M654.053,197.116L654.053,197.116c-4.641,1.833-9.889-0.443-11.722-5.084l-20.951-52.23
									c-1.833-4.641,3.899-5.898,8.54-7.731l0,0c4.641-1.833,11.544,0.52,13.377,5.161l15.84,48.162
									C660.971,190.035,658.694,195.283,654.053,197.116z"/>
								<path style="fill:#FFFFFF;" d="M652.934,154.559l-24.922,11.191l-7.531-21.662c-2.617-6.86,0.823-14.543,7.683-17.16l0,0
									c6.86-2.617,14.543,0.823,17.16,7.683L652.934,154.559z"/>
							</g>
							<g>
								<polygon style="fill:#FFFFFF;" points="605.667,107.746 569.251,113.544 560.376,193.252 617.029,203.283 638.539,127.371 
																	"/>
								<g>
									<path style="fill:#C87D63;" d="M587.981,110.568c0,0,4.922,8.399,15.769,10.472s18.835-3.335,18.835-3.335l-17.085-10.2
										L587.981,110.568z"/>
									
										<line style="fill:none;stroke:#000000;stroke-width:0.3971;stroke-linecap:round;stroke-linejoin:round;stroke-miterlimit:10;" x1="564.917" y1="152.47" x2="566.994" y2="134.734"/>
									
										<line style="fill:none;stroke:#000000;stroke-width:0.3971;stroke-linecap:round;stroke-linejoin:round;stroke-miterlimit:10;" x1="628.012" y1="165.75" x2="632.974" y2="147.013"/>
								</g>
							</g>
						</g>
					</g>
				</g>
			</g>
			<g>
				<g>
					<path style="fill:#FFFFFF;" d="M225.975,194.456H121.646c-3.1,0-5.612-2.513-5.612-5.612V55.198c0-3.1,2.513-5.612,5.612-5.612
						h104.329c3.1,0,5.612,2.513,5.612,5.612v133.646C231.587,191.944,229.075,194.456,225.975,194.456z"/>
					<path style="fill:#70B1C1;" d="M227.555,194.456H120.683c-2.567,0-4.648-2.081-4.648-4.648v-15.221h116.169v15.221
						C232.203,192.375,230.122,194.456,227.555,194.456z"/>
					<rect x="116.034" y="68.844" style="fill:#D07572;" width="116.169" height="105.743"/>
					<g>
						
							<line style="fill:none;stroke:#000000;stroke-width:0.6187;stroke-linecap:round;stroke-linejoin:round;stroke-miterlimit:10;" x1="116.034" y1="68.844" x2="231.545" y2="68.844"/>
						<path style="fill:#D3D2F5;" d="M140.516,58.957c0,3.078-2.495,5.572-5.572,5.572c-3.078,0-5.572-2.495-5.572-5.572
							c0-3.077,2.495-5.572,5.572-5.572C138.021,53.385,140.516,55.88,140.516,58.957z"/>
						
							<line style="fill:none;stroke:#000000;stroke-width:0.6187;stroke-linecap:round;stroke-linejoin:round;stroke-miterlimit:10;" x1="147.627" y1="58.957" x2="176.152" y2="58.957"/>
					</g>
					<g>
						<path style="fill:#FFFFFF;" d="M138.268,181.325c-0.977-0.956-2.54-0.939-3.495,0.037l-0.63,0.643l-0.648-0.638
							c-0.972-0.959-2.537-0.946-3.496,0.027c-0.957,0.973-0.946,2.538,0.028,3.495l2.404,2.368
							c0.005,0.005,0.008,0.011,0.014,0.016c0.384,0.376,0.858,0.601,1.352,0.677c0.761,0.117,1.564-0.122,2.143-0.713l2.365-2.415
							C139.26,183.845,139.243,182.28,138.268,181.325z"/>
						<path style="fill:#FFFFFF;" d="M155.658,184.298c0,2.335-1.893,4.227-4.227,4.227c-2.335,0-4.227-1.893-4.227-4.227
							s1.893-4.227,4.227-4.227C153.766,180.071,155.658,181.964,155.658,184.298z"/>
					</g>
				</g>
				<g>
					<defs>
						
							<rect id="SVGID_00000102540603202772387450000010082864274122778519_" x="116.034" y="21.932" width="116.169" height="152.656"/>
					</defs>
					<clipPath id="SVGID_00000138568202964774865470000010001164449360216713_">
						<use xlink:href="#SVGID_00000102540603202772387450000010082864274122778519_"  style="overflow:visible;"/>
					</clipPath>
					<g style="clip-path:url(#SVGID_00000138568202964774865470000010001164449360216713_);">
						<g>
							<g>
								<path style="fill:#7473DD;" d="M204.536,148.662c0,0,9.525,4.756,10.54,18.823l2.911,40.326
									c0.362,5.009-2.964,9.54-7.85,10.698l0,0c-6.109,1.447-12.069-2.896-12.564-9.154l-4.196-53.104L204.536,148.662z"/>
							</g>
							<g>
								<g>
									<path style="fill:#7473DD;" d="M204.363,148.77c0,0,4.756,3.609,6.489,15.169c1.733,11.56-12.355,59.906-12.355,59.906
										l-43.573-0.394l-10.944-57.758c-0.493-2.43-0.517-4.952,0.092-7.355c0.681-2.685,2.217-5.787,5.568-8.089L204.363,148.77z"
										/>
								</g>
								<g>
									<path style="fill:#DEA39C;" d="M179.834,137.553l24.529,11.217c0,0-19.4,10.834-54.723,1.478l21.767-12.087
										L179.834,137.553z"/>
									
										<path style="fill:none;stroke:#000000;stroke-width:0.3915;stroke-linecap:round;stroke-linejoin:round;stroke-miterlimit:10;" d="
										M202.579,209.021c0,0,6.668-23.111,3.526-42.202"/>
								</g>
							</g>
							<g>
								<path style="fill:#7473DD;" d="M149.64,150.248c0,0-12.703,7.6-16.685,38.808c0,0,6.625,19.336,20.81,18.344
									C167.951,206.409,149.64,150.248,149.64,150.248z"/>
								
									<line style="fill:none;stroke:#000000;stroke-width:0.3915;stroke-linecap:round;stroke-linejoin:round;stroke-miterlimit:10;" x1="151.136" y1="207.007" x2="155.365" y2="168.825"/>
							</g>
						</g>
						<g>
							<path style="fill:#2D1631;" d="M133.226,84.248c0.618,6.664,6.521,11.564,13.184,10.947
								c6.664-0.618,11.564-6.521,10.947-13.184c-0.618-6.664-6.521-11.564-13.184-10.947
								C137.509,71.682,132.608,77.585,133.226,84.248z"/>
							<path style="fill:#2D1631;" d="M145.018,102.954c1.184,12.764,18.16,21.245,25.219,20.59
								c12.764-1.184,22.187-12.112,21.004-24.876c-1.184-12.764-12.458-21.732-25.255-20.969
								C152.987,78.475,143.835,90.19,145.018,102.954z"/>
							<g>
								<path style="fill:#D18E88;" d="M182.974,109.788c0.932,3.418,4.299,4.909,7.717,3.977c3.418-0.932,5.214-5.199,4.282-8.618
									c-0.932-3.418-4.078-4.167-7.497-3.236C184.058,102.843,182.042,106.37,182.974,109.788z"/>
							</g>
							<polygon style="fill:#DEA39C;" points="168.5,114.032 169.102,147.964 184.188,146.915 180.622,117.49 							"/>
							<path d="M182.343,131.69c0,0-9.182-1.739-15.804-12.967l14.518,2.351L182.343,131.69z"/>
							<path style="fill:#DEA39C;" d="M177.308,78.234c0,0,14.062-0.847,14.714,17.669c0.652,18.516-0.193,24.333-7.205,28.89
								c-6.302,4.095-15.935,1.061-21.475-6.323c-2.176-2.9-4.024-7.391-4.633-10.965l-1.543-4.708
								C157.165,102.797,149.163,79.409,177.308,78.234z"/>
							<g>
								
									<polyline style="fill:none;stroke:#C96D66;stroke-width:0.7076;stroke-linecap:round;stroke-linejoin:round;stroke-miterlimit:10;" points="
									182.577,105.867 184.772,109.703 182.652,110.405 								"/>
								<path style="fill:#FFFFFF;" d="M184.933,112.896l-9.306,0.863c0,0,1.192,3.387,5.234,3
									C185.186,116.344,184.933,112.896,184.933,112.896z"/>
								
									<path style="fill:none;stroke:#000000;stroke-width:0.8677;stroke-linecap:round;stroke-linejoin:round;stroke-miterlimit:10;" d="
									M176.373,104.445c0,0-3.649-1.1-5.966,1.324"/>
								
									<path style="fill:none;stroke:#000000;stroke-width:0.8677;stroke-linecap:round;stroke-linejoin:round;stroke-miterlimit:10;" d="
									M185.186,103.403c0,0,2.249-1.684,4.284,0.055"/>
								<path style="fill:#2D1631;" d="M183.933,100.103c0,0-0.129-7.821,6.242-4.344L183.933,100.103z"/>
								<path style="fill:#2D1631;" d="M177.562,100.184c0,0-4.613-6.977-11.387-0.841L177.562,100.184z"/>
							</g>
							<polygon style="fill:#2D1631;" points="160.616,91.822 161.929,109.36 150.038,101.275 154.426,94.865 							"/>
							<g>
								<path style="fill:#DEA39C;" d="M162.908,111.986c-0.437,3.516-3.081,4.668-6.597,4.231
									c-3.516-0.437-5.899-4.407-5.461-7.923c0.437-3.516,3.445-4.704,6.961-4.267
									C161.327,104.464,163.345,108.47,162.908,111.986z"/>
							</g>
							<g>
								<path style="fill:#2D1631;" d="M164.968,77.817l15.212-0.556c8.179-0.758,15.481,4.326,16.131,12.515
									c0.011,0.137,0.021,0.275,0.03,0.415l-41.988,3.893C154.353,94.083,148.642,79.33,164.968,77.817z"/>
							</g>
						</g>
					</g>
				</g>
			</g>
			<g>
				<g>
					<path style="fill:#FFFFFF;" d="M248.439,380.26H61.406c-3.099,0-5.612-2.513-5.612-5.612V231.061
						c0-3.1,2.513-5.612,5.612-5.612h187.033c3.099,0,5.612,2.513,5.612,5.612v143.587
						C254.051,377.748,251.538,380.26,248.439,380.26z"/>
					<path style="fill:#70B1C1;" d="M250.018,380.26H60.442c-2.567,0-4.648-2.081-4.648-4.648v-15.22h198.873v15.22
						C254.667,378.179,252.586,380.26,250.018,380.26z"/>
					<rect x="55.794" y="244.707" style="fill:#7473DD;" width="198.873" height="115.685"/>
					<g>
						
							<line style="fill:none;stroke:#000000;stroke-width:0.6187;stroke-linecap:round;stroke-linejoin:round;stroke-miterlimit:10;" x1="55.794" y1="244.707" x2="254.009" y2="244.707"/>
						<path style="fill:#D3D2F5;" d="M80.275,234.82c0,3.077-2.495,5.572-5.572,5.572c-3.077,0-5.572-2.495-5.572-5.572
							s2.495-5.572,5.572-5.572C77.781,229.247,80.275,231.742,80.275,234.82z"/>
						
							<line style="fill:none;stroke:#000000;stroke-width:0.6187;stroke-linecap:round;stroke-linejoin:round;stroke-miterlimit:10;" x1="87.387" y1="234.82" x2="115.911" y2="234.82"/>
					</g>
					<g>
						<path style="fill:#FFFFFF;" d="M78.027,367.129c-0.977-0.956-2.54-0.939-3.495,0.037l-0.63,0.643l-0.648-0.638
							c-0.972-0.959-2.537-0.946-3.495,0.027c-0.957,0.973-0.946,2.537,0.027,3.495l2.404,2.368
							c0.005,0.005,0.008,0.011,0.014,0.016c0.384,0.376,0.858,0.601,1.352,0.677c0.761,0.117,1.564-0.122,2.143-0.713l2.365-2.415
							C79.019,369.649,79.003,368.084,78.027,367.129z"/>
						<path style="fill:#FFFFFF;" d="M95.418,370.102c0,2.335-1.893,4.227-4.227,4.227s-4.227-1.893-4.227-4.227
							s1.892-4.227,4.227-4.227S95.418,367.768,95.418,370.102z"/>
					</g>
				</g>
				<g>
					<g>
						<g>
							<g>
								<g>
									<g>
										<polygon style="fill:#DEA39C;" points="203.291,328.997 220.06,273.291 229.336,275.492 224.483,327.465 										"/>
									</g>
								</g>
								<g>
									<path style="fill:#DEA39C;" d="M227.515,279.258c-4.706,1.113-9.087-2.787-8.528-7.59l1.671-14.353
										c0,0,0.173-2.221,4.301-5.782c3.277-2.826,9.301-10.053,11.673-12.946c0.548-0.669,1.595-1.413,2.359-0.658l0,0
										c0.597,0.476,0.419,1.926-0.235,2.951c-1.446,2.266-4.625,7.777-7.988,11.416c0,0,1.998-0.222,2.676,1.64
										c0,0,2.913-0.77,3.09,3.147c0,0,4.487-0.947,3.75,4.531l-2.292,5.267c-0.453,1.042-1.635,1.557-2.707,1.179l0,0
										C235.286,268.062,232.874,277.749,227.515,279.258L227.515,279.258z"/>
								</g>
							</g>
							<g>
								<path style="fill:#DEA39C;" d="M171.256,297.011l46.118,19.186c4.772,1.556,7.759,6.29,7.108,11.268l0,0
									c-0.821,6.274-6.995,10.378-13.097,8.705l-47.009-16.215c-6.131-1.681-9.881-7.857-8.545-14.072l0,0
									C157.325,298.936,164.501,294.809,171.256,297.011z"/>
								<g>
									<path style="fill:#FFFFFF;" d="M145.508,313.227c0,0,5.463,10.484,38.666,19.603l10.895-26.089l-24.932-11.843
										L145.508,313.227z"/>
								</g>
							</g>
						</g>
						<g>
							<path style="fill:#FFFFFF;" d="M168.828,294.493c1.731,0.278,3.179,1.455,3.806,3.092c3.117,8.132,10.625,18.27,2.48,37.086
								l-9.947,25.675h-39.54c0,0-15.61-21.442-15.254-42.779c0.356-21.337,17.22-23.581,17.22-23.581l40.998,0.468L168.828,294.493
								z"/>
							<g>
								<path style="fill:#DEA39C;" d="M168.591,294.455c0,0-13.617-3.21-16.76-3.21c0,0-8.721-0.667-24.238,2.742
									c0,0,3.528,2.814,8.699,7.411C146.645,310.602,162.953,307.108,168.591,294.455L168.591,294.455z"/>
								
									<path style="fill:none;stroke:#000000;stroke-width:0.3971;stroke-linecap:round;stroke-linejoin:round;stroke-miterlimit:10;" d="
									M176.292,331.706c0,0,4.527-12.401,1.559-20.659"/>
							</g>
						</g>
						<g>
							<g>
								<path style="fill:#DEA39C;" d="M122.703,323.918l-11.486,43.876c-0.988,4.886-5.341,7.45-10.734,6.435l0,0
									c-3.983-1.194-7.504-5.103-6.959-9.225l6.572-36.511L122.703,323.918z"/>
								<g>
									<path style="fill:#FFFFFF;" d="M127.594,293.987c0,0-19.561,0.536-23.937,7.92c-4.376,7.384-9.476,31.223-9.476,31.223
										l29.712,5.387L127.594,293.987z"/>
									
										<polyline style="fill:none;stroke:#000000;stroke-width:0.3971;stroke-linecap:round;stroke-linejoin:round;stroke-miterlimit:10;" points="
										119.085,337.739 124.632,338.723 127.892,324.69 									"/>
								</g>
							</g>
							<g>
								<g>
									<path style="fill:#DEA39C;" d="M153.548,360.348l-48.321,13.806c-3.827,1.123-9.452-2.305-10.519-6.148l0,0
										c-1.187-4.274,2.758-12.714,7.172-13.155l49.007-2.461L153.548,360.348z"/>
								</g>
								<path style="fill:#DEA39C;" d="M150.887,352.389c0,0,22.067-5.278,22.067,7.958h-19.406L150.887,352.389z"/>
							</g>
						</g>
					</g>
					<g>
						<path style="fill:#D07572;" d="M121.102,252.322c0,0,1.637,12.667-4.268,26.996c-0.883,2.144,0.218,4.517,2.45,5.3
							c8.711,3.056,43.007,3.093,56.763-7.966c1.572-1.264,2.546-3.047,1.969-4.87c-1.473-4.653-5.188-13.616-13.413-20.673
							L121.102,252.322z"/>
						
							<ellipse transform="matrix(0.9944 -0.1056 0.1056 0.9944 -25.5905 16.6799)" style="fill:#D07572;" cx="144.791" cy="250.111" rx="23.799" ry="22.714"/>
						<path style="fill:#D18E88;" d="M161.258,258.731c1.325,3.133,4.938,4.599,8.071,3.274c3.133-1.325,4.599-4.938,3.274-8.071
							c-1.325-3.133-4.938-4.599-8.071-3.274C161.399,251.985,159.934,255.598,161.258,258.731z"/>
						<polygon style="fill:#DEA39C;" points="154.708,272.046 156.505,297.247 139.749,297.138 141.106,259.748 						"/>
						<path style="fill:#1E0A00;" d="M155.377,281.329c0,0-13.078-3.365-15.36-18.036l14.825,10.514L155.377,281.329z"/>
						<path style="fill:#DEA39C;" d="M163.083,234.64c1.683,1.141,2.862,2.87,3.467,4.804c1.794,5.735,5.19,15.813,3.777,22.253
							c-1.838,8.374-7.797,14.806-18.625,13.915c0,0-12.855,0.067-17.181-15.765C127.628,234.622,148.667,224.865,163.083,234.64z"
							/>
						<path style="fill:#D07572;" d="M135.629,255.583c1.055,0.316,15.532-12.446,4.84-23.586c0,0-10.873,4.447-7.986,23.91
							L135.629,255.583z"/>
						<polygon style="fill:#D07572;" points="138.839,248.788 138.988,261.733 133.323,250.47 						"/>
						<g>
							<path style="fill:#DEA39C;" d="M128.858,263.133c1.249,2.954,4.657,4.337,7.611,3.088c2.954-1.249,4.337-4.657,3.088-7.611
								c-1.249-2.954-4.657-4.337-7.611-3.088C128.991,256.771,127.609,260.179,128.858,263.133z"/>
						</g>
						<path style="fill:#D07572;" d="M142.393,227.524c0,0,21.986-4.289,27.804,11.18l-30.006,5.563l-3.958-10.206L142.393,227.524z
							"/>
						<g>
							
								<polyline style="fill:none;stroke:#C96D66;stroke-width:0.7176;stroke-linecap:round;stroke-linejoin:round;stroke-miterlimit:10;" points="
								160.09,253.897 163.052,257.361 161.876,259.107 							"/>
							
								<path style="fill:none;stroke:#000000;stroke-width:0.8801;stroke-linecap:round;stroke-linejoin:round;stroke-miterlimit:10;" d="
								M154.469,253.942c0,0-3.756-0.914-5.97,1.667"/>
							
								<path style="fill:none;stroke:#000000;stroke-width:0.8801;stroke-linecap:round;stroke-linejoin:round;stroke-miterlimit:10;" d="
								M163.337,252.404c0,0,2.186-1.829,4.342-0.179"/>
							<path style="fill:#2D1631;" d="M161.887,249.131c0,0-0.558-7.913,6.084-4.74L161.887,249.131z"/>
							<path style="fill:#2D1631;" d="M155.439,249.562c0,0-5.054-6.813-11.578-0.228L155.439,249.562z"/>
							<g>
								<defs>
									<path id="XMLID_11_" d="M163.411,261.482l-10.587,2.467c0,0,1.102,4.96,6.643,3.549
										C165.007,266.088,163.411,261.482,163.411,261.482z"/>
								</defs>
								<use xlink:href="#XMLID_11_"  style="overflow:visible;"/>
								<clipPath id="XMLID_00000060004516871116571150000007682657183192731030_">
									<use xlink:href="#XMLID_11_"  style="overflow:visible;"/>
								</clipPath>
								<polygon style="clip-path:url(#XMLID_00000060004516871116571150000007682657183192731030_);fill:#FFFFFF;" points="
									164.478,262.967 152.005,265.925 151.476,262.703 165.373,258.176 								"/>
								<path style="clip-path:url(#XMLID_00000060004516871116571150000007682657183192731030_);fill:#D85758;" d="
									M154.225,271.204c1.163,1.618,3.417,1.988,5.036,0.825c1.618-1.163,1.988-3.417,0.825-5.036s-3.417-1.988-5.036-0.825
									C153.431,267.331,153.062,269.586,154.225,271.204z"/>
							</g>
						</g>
					</g>
				</g>
			</g>
			<g>
				<g>
					<path style="fill:#FFFFFF;" d="M636.515,381.309H532.187c-3.1,0-5.612-2.513-5.612-5.612V242.051
						c0-3.099,2.513-5.612,5.612-5.612h104.329c3.099,0,5.612,2.513,5.612,5.612v133.646
						C642.128,378.797,639.615,381.309,636.515,381.309z"/>
					<path style="fill:#70B1C1;" d="M638.095,381.309H531.223c-2.567,0-4.648-2.081-4.648-4.648V361.44h116.169v15.221
						C642.743,379.228,640.662,381.309,638.095,381.309z"/>
					<rect x="526.575" y="255.697" style="fill:#D07572;" width="116.169" height="105.743"/>
					<g>
						
							<line style="fill:none;stroke:#000000;stroke-width:0.6187;stroke-linecap:round;stroke-linejoin:round;stroke-miterlimit:10;" x1="526.575" y1="255.697" x2="642.086" y2="255.697"/>
						<path style="fill:#D3D2F5;" d="M551.056,245.81c0,3.077-2.495,5.572-5.572,5.572c-3.077,0-5.572-2.495-5.572-5.572
							c0-3.078,2.495-5.572,5.572-5.572C548.561,240.238,551.056,242.733,551.056,245.81z"/>
						
							<line style="fill:none;stroke:#000000;stroke-width:0.6187;stroke-linecap:round;stroke-linejoin:round;stroke-miterlimit:10;" x1="558.168" y1="245.81" x2="586.692" y2="245.81"/>
					</g>
					<g>
						<path style="fill:#FFFFFF;" d="M548.808,368.178c-0.976-0.956-2.54-0.939-3.495,0.037l-0.63,0.643l-0.648-0.638
							c-0.972-0.959-2.537-0.946-3.495,0.026c-0.957,0.973-0.946,2.538,0.027,3.495l2.404,2.368
							c0.005,0.005,0.008,0.011,0.014,0.016c0.384,0.376,0.858,0.601,1.352,0.677c0.761,0.117,1.564-0.122,2.143-0.714l2.365-2.415
							C549.8,370.698,549.783,369.133,548.808,368.178z"/>
						<path style="fill:#FFFFFF;" d="M566.198,371.151c0,2.335-1.893,4.227-4.227,4.227s-4.227-1.893-4.227-4.227
							s1.892-4.227,4.227-4.227S566.198,368.817,566.198,371.151z"/>
					</g>
				</g>
				<g>
					<defs>
						
							<rect id="SVGID_00000054970680123997774040000002909989644008171649_" x="526.575" y="255.697" width="116.169" height="105.743"/>
					</defs>
					<clipPath id="SVGID_00000151510759931745452980000009667280883263408523_">
						<use xlink:href="#SVGID_00000054970680123997774040000002909989644008171649_"  style="overflow:visible;"/>
					</clipPath>
					<g style="clip-path:url(#SVGID_00000151510759931745452980000009667280883263408523_);">
						<g>
							<path style="fill:#D3D2F5;" d="M568.033,328.034c0,0-19.439,1.671-24.231,43.366l23.893,8.063L568.033,328.034z"/>
							<g>
								<path style="fill:#D3D2F5;" d="M593.457,326.549c0,0,12.859,3.804,19.812,8.292c4.377,2.826-0.331,7.422-1.461,12.508
									l-0.943,82.224l-61.566-7.112l6.32-79.484c0.253-7.227,5.359-13.354,12.414-14.943c7.904-1.781,10.64-3.717,14.724-3.52
									L593.457,326.549z"/>
								
									<line style="fill:none;stroke:#1D0005;stroke-width:0.2925;stroke-linecap:round;stroke-linejoin:round;stroke-miterlimit:10;" x1="554.726" y1="352.581" x2="553.11" y2="374.541"/>
								<path style="fill:#DEA39C;" d="M570.569,327.415l12.098-4.243l9.945,2.858l7.74,2.834c0,0-8.513,9.27-20.318,7.295
									S570.569,327.415,570.569,327.415z"/>
							</g>
							<g>
								<g>
									<g>
										<path style="fill:#D3D2F5;" d="M613.268,334.841c0,0,9.887,4.702,19.447,35.122l-23.776,10.963l-12.928-24.869
											L613.268,334.841z"/>
										
											<line style="fill:none;stroke:#1D0005;stroke-width:0.2925;stroke-linecap:round;stroke-linejoin:round;stroke-miterlimit:10;" x1="610.927" y1="381.92" x2="598.993" y2="355.063"/>
									</g>
								</g>
							</g>
						</g>
						<g>
							<path style="fill:#2D1631;" d="M569.082,277.825c0,0-7.416-10.028,0.862-14.899c9.829-5.783,15.276,3.325,24.576,5.765
								l-4.179,11.841L569.082,277.825z"/>
							<path style="fill:#2D1631;" d="M591.849,298.324l5.388-11.638c-1.251-3.897-3.8-3.599-3.8-3.599
								c0.076-0.243-3.17-2.298-3.096-2.555c-9.742-12.212-21.259-2.707-21.259-2.707s6.823-12.715,23.468-9.597
								c11.728,2.197,17.588,12.771,15.301,22.435c-2.657,11.228-9.088,12.637-15.594,17.994L591.849,298.324z"/>
							<path style="fill:#D18E88;" d="M572.134,296.409c-0.905,2.657-3.793,4.078-6.45,3.173c-2.657-0.905-4.078-3.793-3.173-6.45
								c0.905-2.657,3.793-4.078,6.45-3.173C571.618,290.863,573.039,293.751,572.134,296.409z"/>
							<polygon style="fill:#DEA39C;" points="578.663,308.78 577.306,325.706 593.212,326.944 591.835,296.306 							"/>
							<polygon style="fill:#2D1631;" points="577.82,318.969 589.073,307.519 578.57,309.789 							"/>
							<path style="fill:#DEA39C;" d="M575.784,273.222c-4.982,1.422-8.75,6.148-9.773,10.948
								c-1.178,5.528-2.115,13.062-0.83,17.491c1.988,6.848,7.557,12.46,16.433,11.039c0,0,8.234-0.643,12.856-15.316
								C600.777,277.366,586.647,270.121,575.784,273.222z"/>
							<path style="fill:#2D1631;" d="M590.727,297.355c0,0,1.314-6.393,5.79-19.189l2.511,4.763l-2.54,12.553L590.727,297.355z"/>
							<g>
								<path style="fill:#DEA39C;" d="M599.643,300.273c-0.932,2.736-3.905,4.199-6.642,3.268
									c-2.736-0.932-4.199-3.905-3.268-6.642c0.932-2.736,3.905-4.199,6.642-3.268S600.574,297.536,599.643,300.273z"/>
							</g>
							<path style="fill:#2D1631;" d="M596.289,288.736c0,0-1.108-1.527-1.189-5.098c-0.025-1.116-1.463-4.681-2.94-6.038
								c-1.294-1.189-3.399-2.563-5.587-2.069c-12.035,2.717-14.416-0.575-14.416-0.575s5.328-5.815,14.724-3.35
								c9.396,2.465,9.619,7.437,9.619,7.437l2.529,7.228L596.289,288.736z"/>
							<g>
								
									<polyline style="fill:none;stroke:#C96D66;stroke-width:0.6842;stroke-linecap:round;stroke-linejoin:round;stroke-miterlimit:10;" points="
									572.658,292.509 570.518,295.618 572.334,296.341 								"/>
								<path style="fill:#FFFFFF;" d="M569.824,299.093l8.898,1.579c0,0-1.421,3.168-5.284,2.471
									C569.303,302.396,569.824,299.093,569.824,299.093z"/>
								
									<path style="fill:none;stroke:#000000;stroke-width:0.8391;stroke-linecap:round;stroke-linejoin:round;stroke-miterlimit:10;" d="
									M578.752,291.637c0,0,3.605-0.767,5.643,1.755"/>
								
									<path style="fill:none;stroke:#000000;stroke-width:0.8391;stroke-linecap:round;stroke-linejoin:round;stroke-miterlimit:10;" d="
									M570.631,290.484c0,0-1.105-1.989-3.979-0.82"/>
								<path style="fill:#2D1631;" d="M573.055,287.539c0,0,0.752-7.526-5.667-4.687L573.055,287.539z"/>
								<path style="fill:#2D1631;" d="M577.948,287.435c0,0,5.006-6.353,11.041,0.104L577.948,287.435z"/>
							</g>
						</g>
					</g>
				</g>
			</g>
		</g>
	</g>
	<g>
		<g>
			<g>
				<g>
					<g>
						<g>
							<path style="fill:#D18E88;" d="M326.898,186.711c3.002,6.708,2.746,17.536-3.62,19.93
								c-6.366,2.394-15.349-3.278-18.374-11.431c-2.551-6.874,0.238-14.066,6.604-16.46
								C317.874,176.355,323.896,180.003,326.898,186.711z"/>
						</g>
					</g>
				</g>
				<g>
					<g>
						<g>
							<path style="fill:#D18E88;" d="M407.037,186.711c-3.002,6.708-2.746,17.536,3.62,19.93
								c6.366,2.394,15.349-3.278,18.374-11.431c2.551-6.874-0.238-14.066-6.604-16.46
								C416.062,176.355,410.039,180.003,407.037,186.711z"/>
						</g>
					</g>
				</g>
				<g>
					<polygon style="fill:#DEA39C;" points="349.064,225.717 344.455,288.004 387.647,288.004 382.616,225.054 					"/>
				</g>
				<path d="M347.982,240.808c0,0,13.33,20.644,37.232,15.032l-1.784-21.577L347.982,240.808z"/>
				<path style="fill:#2D1631;" d="M423.131,154.078c0,32.816-25.026,66.344-55.897,66.344s-55.897-36.989-55.897-69.806
					c0-32.816,25.026-49.033,55.897-49.033S423.131,121.261,423.131,154.078z"/>
				<path id="XMLID_9_" style="fill:#DEA39C;" d="M367.234,118.696L367.234,118.696c-24.806,0-46.714,19.188-46.714,42.857
					l1.429,28.405c0,0,0.363,31.125,23.225,48.306c13.117,9.857,31.003,9.857,44.119,0c22.863-17.181,23.225-48.306,23.225-48.306
					l1.429-28.405C413.948,137.884,392.04,118.696,367.234,118.696z"/>
				<g>
					<g>
						
							<polyline style="fill:none;stroke:#C96D66;stroke-width:1.3296;stroke-linecap:round;stroke-linejoin:round;stroke-miterlimit:10;" points="
							366.504,201.185 366.504,211.401 371.404,211.401 						"/>
					</g>
					<g>
						<g>
							<defs>
								<path id="XMLID_8_" d="M355.564,189.765c0,0-0.067-6.077-11.619-5.227c-10.37,0.762-11.551,5.412-11.551,5.412
									s1.419,6.148,12.787,6.338C356.548,196.479,355.564,189.765,355.564,189.765z"/>
							</defs>
							<use xlink:href="#XMLID_8_"  style="overflow:visible;fill:#FFFFFF;"/>
							<clipPath id="XMLID_00000003787883784801721220000014041755955101431434_">
								<use xlink:href="#XMLID_8_"  style="overflow:visible;"/>
							</clipPath>
							<path style="clip-path:url(#XMLID_00000003787883784801721220000014041755955101431434_);fill:#2D1631;" d="M337.911,189.465
								c0.032,3.977,3.03,7.177,6.696,7.148c3.666-0.029,6.612-3.277,6.581-7.254s-3.03-7.177-6.696-7.148
								C340.826,182.24,337.879,185.488,337.911,189.465z"/>
						</g>
						<path style="fill:#2D1631;" d="M354.929,188.644c-1.339-1.178-3.312-2.198-5.245-2.801c-1.961-0.622-4.078-0.97-6.153-0.973
							c-2.081-0.015-4.151,0.426-6.039,1.306c-1.864,0.884-3.595,2.267-4.732,3.973l-0.027,0.041
							c-0.128,0.192-0.386,0.243-0.578,0.116c-0.184-0.122-0.238-0.366-0.13-0.555c2.318-4.022,6.868-6.343,11.438-6.615
							c2.293-0.149,4.566,0.049,6.815,0.585c2.265,0.571,4.372,1.373,6.445,2.937c0.591,0.446,0.709,1.287,0.263,1.878
							c-0.446,0.591-1.287,0.709-1.878,0.263c-0.026-0.02-0.052-0.04-0.076-0.062L354.929,188.644z"/>
					</g>
					<g>
						<g>
							<defs>
								<path id="XMLID_7_" d="M378.785,189.765c0,0,0.067-6.077,11.619-5.227c10.37,0.762,11.551,5.412,11.551,5.412
									s-1.419,6.148-12.787,6.338C377.801,196.479,378.785,189.765,378.785,189.765z"/>
							</defs>
							<use xlink:href="#XMLID_7_"  style="overflow:visible;fill:#FFFFFF;"/>
							<clipPath id="XMLID_00000157278612409067724080000002039193153009941634_">
								<use xlink:href="#XMLID_7_"  style="overflow:visible;"/>
							</clipPath>
							<path style="clip-path:url(#XMLID_00000157278612409067724080000002039193153009941634_);fill:#2D1631;" d="M396.438,189.465
								c-0.032,3.977-3.03,7.177-6.696,7.148c-3.666-0.029-6.612-3.277-6.581-7.254s3.03-7.177,6.696-7.148
								C393.523,182.24,396.47,185.488,396.438,189.465z"/>
						</g>
						<path style="fill:#2D1631;" d="M377.625,186.657c2.073-1.564,4.18-2.365,6.445-2.937c2.249-0.536,4.522-0.734,6.815-0.585
							c4.57,0.273,9.12,2.593,11.438,6.615c0.115,0.199,0.046,0.454-0.153,0.569c-0.191,0.11-0.433,0.052-0.554-0.129l-0.028-0.042
							c-1.137-1.706-2.868-3.089-4.732-3.973c-1.888-0.88-3.957-1.321-6.038-1.306c-2.075,0.003-4.191,0.351-6.153,0.973
							c-1.932,0.603-3.906,1.623-5.245,2.801l-0.102,0.09c-0.556,0.489-1.403,0.435-1.892-0.121
							c-0.489-0.556-0.435-1.403,0.121-1.892C377.571,186.699,377.599,186.677,377.625,186.657z"/>
					</g>
					<path style="fill:#2D1631;" d="M358.992,164.31c0,0-18.787-14.999-31.885,7.773L358.992,164.31z"/>
					<path style="fill:#2D1631;" d="M376.759,164.31c0,0,18.787-14.999,31.885,7.773L376.759,164.31z"/>
					<g>
						<path style="opacity:0.23;fill:#FFFFFF;" d="M340.427,175.312l20.382,27.672c0,0-6.147,11.751-15.94,10.445l-20.573-26.996
							C324.297,186.433,329.859,174.565,340.427,175.312z"/>
						<path style="opacity:0.23;fill:#FFFFFF;" d="M389.793,175.312l20.382,27.672c0,0-6.147,11.751-15.94,10.445l-20.573-26.996
							C373.663,186.433,379.225,174.565,389.793,175.312z"/>
						<path style="fill:none;stroke:#FFFFFF;stroke-width:1.4283;stroke-miterlimit:10;" d="M362.428,194.537
							c0,11.007-8.923,19.93-19.93,19.93c-11.007,0-19.93-8.923-19.93-19.93c0-11.007,8.923-19.93,19.93-19.93
							C353.505,174.607,362.428,183.53,362.428,194.537z"/>
						<path style="fill:none;stroke:#FFFFFF;stroke-width:1.4283;stroke-miterlimit:10;" d="M411.85,194.537
							c0,11.007-8.923,19.93-19.93,19.93c-11.007,0-19.93-8.923-19.93-19.93c0-11.007,8.923-19.93,19.93-19.93
							C402.927,174.607,411.85,183.53,411.85,194.537z"/>
						<path style="fill:none;stroke:#FFFFFF;stroke-width:1.4283;stroke-miterlimit:10;" d="M362.428,194.537
							c0,0,4.142-2.286,9.561,0"/>
					</g>
					
						<path style="fill:none;stroke:#2D1631;stroke-width:1.3296;stroke-linecap:round;stroke-linejoin:round;stroke-miterlimit:10;" d="
						M358.992,221.01c0,0,8.884-4.652,17.767,0.367"/>
				</g>
				<path style="fill:#2D1631;" d="M410.829,131.141c0,0-16.176,0,3.119,35.563C413.948,166.705,417.975,148.22,410.829,131.141z"/>
				<path style="fill:#2D1631;" d="M385.214,106.37c0,0-26.222-17.845-56.931-6.809c-29.263,10.517-22.677,45.973-11.137,53.496
					L385.214,106.37z"/>
				<path style="fill:#2D1631;" d="M353.472,105.034c0,0,21.428-11.574,46.969-1.057s28.751,36.617,20.705,66.352
					c0,0-4.181-48.698-31.411-53.957C362.505,111.113,353.472,105.034,353.472,105.034z"/>
				<path style="fill:#D18E88;" d="M321.479,153.057c0,0-0.532,1.054-0.678,4.348c0,0,52.131,0.932,60.438-28.038l-3.482-1.861
					l-49.002,18.926L321.479,153.057z"/>
				<path style="fill:#2D1631;" d="M317.146,153.057c0,0,67.843,5.933,64.73-40.044C381.876,113.013,329.496,99.812,317.146,153.057
					z"/>
				<path style="fill:#D18E88;" d="M378.924,132.871c0,0,12.17-1.548,25.688,5.417c0,0-8.104-12.047-24.868-9.72L378.924,132.871z"
					/>
				<path style="fill:#2D1631;" d="M409.78,144.151c0,0-9.616-18.89-47.352-14.571l8.976-23.209l33.078,11.211l9.466,16.991
					L409.78,144.151z"/>
			</g>
			<g>
				<g>
					<g>
						<path style="fill:#DEA39C;" d="M240.698,364.916l-34.336,63.649c-8.217,15.232,2.814,33.716,20.121,33.716h71.116v-70.242
							L240.698,364.916z"/>
						<path style="fill:#F4DA8B;" d="M271.766,293.843c0,0-16.39,5.293-49.632,76.531l63.927,36.461l41.858-96.658L271.766,293.843z
							"/>
					</g>
					<g>
						<path style="fill:#DEA39C;" d="M490.825,364.916l34.336,63.649c8.217,15.232-2.814,33.716-20.121,33.716h-71.115v-70.242
							L490.825,364.916z"/>
						<path style="fill:#F4DA8B;" d="M460.795,293.843c0,0,16.39,5.293,49.632,76.531L446.5,406.835l-41.858-96.658L460.795,293.843
							z"/>
					</g>
					<g>
						<path style="fill:#F4DA8B;" d="M454.762,290.703L414.4,278.466l-48.119,5.445l-48.119-5.445l-40.363,12.237
							c-7.855,2.382-13.227,9.623-13.227,17.831v153.747h100.132h3.153h100.132V308.534
							C467.989,300.326,462.618,293.085,454.762,290.703z"/>
						<path style="fill:#DEA39C;" d="M318.162,278.467c0,0,16.41,20.942,49.067,20.942c31.928,0,47.809-20.745,47.809-20.745
							l-49.919-14.82L318.162,278.467z"/>
					</g>
				</g>
				<g>
					<path style="fill:#2D1631;" d="M481.77,462.281H255.14v-127.85c0-6.977,5.656-12.633,12.633-12.633h201.365
						c6.977,0,12.633,5.656,12.633,12.633V462.281z"/>
					
						<ellipse transform="matrix(0.7071 -0.7071 0.7071 0.7071 -169.2958 375.3626)" style="fill:#FFFFFF;" cx="368.455" cy="392.039" rx="12.262" ry="12.262"/>
				</g>
			</g>
		</g>
		
			<line style="fill:none;stroke:#9998E0;stroke-width:0.9941;stroke-miterlimit:10;" x1="46.588" y1="462.281" x2="691.367" y2="462.281"/>
	</g>
</g>
</svg>
