<?xml version="1.0" encoding="iso-8859-1"?>
<!-- Uploaded to: SVG Repo, www.svgrepo.com, Generator: SVG Repo Mixer Tools -->
<svg version="1.1" id="Layer_1" xmlns="http://www.w3.org/2000/svg" xmlns:xlink="http://www.w3.org/1999/xlink" 
	 viewBox="0 0 512 512" xml:space="preserve">
<polygon style="fill:#C70024;" points="478.609,33.391 478.609,0 33.391,0 33.391,33.391 0,33.391 0,378.435 33.391,378.435 
	33.391,411.826 144.696,411.826 144.696,445.217 111.304,445.217 111.304,512 400.696,512 400.696,445.217 367.304,445.217 
	367.304,411.826 478.609,411.826 478.609,378.435 512,378.435 512,33.391 "/>
<polygon style="fill:#A5001E;" points="478.609,33.391 478.609,0 256,0 256,512 400.696,512 400.696,445.217 367.304,445.217 
	367.304,411.826 478.609,411.826 478.609,378.435 512,378.435 512,33.391 "/>
<rect x="66.783" y="66.783" style="fill:#2488FF;" width="378.435" height="278.261"/>
<rect x="66.783" y="66.783" style="fill:#57A4FF;" width="189.217" height="278.261"/>
<rect x="33.391" width="445.217" height="33.391"/>
<polygon points="144.696,478.609 144.696,445.217 111.304,445.217 111.304,512 400.696,512 400.696,445.217 367.304,445.217 
	367.304,478.609 "/>
<polygon points="300.522,378.435 300.522,445.217 367.304,445.217 367.304,411.826 478.609,411.826 478.609,378.435 "/>
<rect y="33.391" width="33.391" height="345.043"/>
<rect x="478.609" y="33.391" width="33.391" height="345.043"/>
<polygon points="211.478,445.217 211.478,378.435 33.391,378.435 33.391,411.826 144.696,411.826 144.696,445.217 "/>
<polygon style="fill:#FFFFFF;" points="345.043,133.565 311.652,133.565 311.652,100.174 200.348,100.174 200.348,133.565 
	166.957,133.565 166.957,244.87 200.348,244.87 200.348,278.261 233.739,278.261 233.739,311.652 189.217,311.652 189.217,345.043 
	322.783,345.043 322.783,311.652 278.261,311.652 278.261,278.261 311.652,278.261 311.652,244.87 345.043,244.87 "/>
</svg>